<svg width="24" height="24" viewBox="0 0 24 24" fill="none" xmlns="http://www.w3.org/2000/svg">
<g clip-path="url(#clip0_39_2021)">
<path d="M2 9.98933C2 10.8402 2.4953 11.3597 3.30658 11.3597H20.6849C21.4962 11.3597 22 10.8402 22 9.98933V9.55048C22 8.7086 21.4962 8.17123 20.6849 8.17123H3.30658C2.4953 8.17123 2 8.7086 2 9.55048V9.98933ZM7.43125 21.1936H16.5688C18.5414 21.1936 19.1563 19.9845 19.4039 18.6858L20.5909 12.5866H3.41759L4.59607 18.6858C4.84372 19.9845 5.45858 21.1936 7.43125 21.1936ZM7.98634 19.6531C7.66183 19.7069 7.42272 19.5278 7.37148 19.2232L6.63706 14.7182C6.58583 14.4137 6.7737 14.1719 7.09821 14.1092C7.42272 14.0644 7.67037 14.2346 7.72161 14.5391L8.44749 19.0441C8.49018 19.3486 8.31939 19.5904 7.98634 19.6531ZM10.6934 19.6441C10.3689 19.6621 10.1298 19.4561 10.1127 19.1426L9.83092 14.6914C9.81387 14.3779 10.0273 14.154 10.3433 14.1271C10.6763 14.1002 10.8984 14.3152 10.924 14.6287L11.2058 19.0799C11.2229 19.3934 11.0094 19.6263 10.6934 19.6441ZM13.3237 19.6441C12.9992 19.6263 12.7857 19.3934 12.8027 19.0799L13.0845 14.6287C13.1102 14.3152 13.3322 14.1002 13.6652 14.1271C13.9812 14.154 14.1947 14.3779 14.1776 14.6914L13.8958 19.1426C13.8788 19.4561 13.6397 19.6621 13.3237 19.6441ZM16.0137 19.6531C15.6806 19.5904 15.5099 19.3486 15.5526 19.0441L16.2784 14.5391C16.3297 14.2346 16.5773 14.0644 16.9018 14.1092C17.2263 14.1719 17.4142 14.4316 17.3629 14.7361L16.6285 19.2232C16.5773 19.5278 16.3297 19.7069 16.0137 19.6531ZM4.74979 8.55634H6.45773L9.46372 3.08408C9.69429 2.65418 9.50642 2.27802 9.19044 2.09889C8.88301 1.92872 8.4731 1.95559 8.24253 2.35862L4.74979 8.55634ZM17.5423 8.55634H19.2502L15.7575 2.35862C15.5354 1.96455 15.1255 1.93768 14.8096 2.09889C14.5021 2.27802 14.3057 2.65418 14.5363 3.08408L17.5423 8.55634Z" fill="#FFAE35"/>
</g>
<defs>
<clipPath id="clip0_39_2021">
<rect width="20" height="20" fill="white" transform="translate(2 2)"/>
</clipPath>
</defs>
</svg>
