<svg width="24" height="24" viewBox="0 0 24 24" fill="none" xmlns="http://www.w3.org/2000/svg">
<rect width="24" height="24" rx="12" fill="#84D818"/>
<path d="M4.5 11.9954C4.5 12.4408 4.87273 12.8044 5.30909 12.8044H11.1909V18.6863C11.1909 19.1227 11.5546 19.4954 12 19.4954C12.4455 19.4954 12.8182 19.1227 12.8182 18.6863V12.8044H18.691C19.1273 12.8044 19.5 12.4408 19.5 11.9954C19.5 11.5499 19.1273 11.1772 18.691 11.1772H12.8182V5.30445C12.8182 4.86809 12.4455 4.49536 12 4.49536C11.5546 4.49536 11.1909 4.86809 11.1909 5.30445V11.1772H5.30909C4.87273 11.1772 4.5 11.5499 4.5 11.9954Z" fill="white"/>
</svg>
