<svg width="24" height="24" viewBox="0 0 24 24" fill="none" xmlns="http://www.w3.org/2000/svg">
<g clip-path="url(#clip0_51_1269)">
<path d="M12.0052 17.5182C12.2643 17.5182 12.5233 17.4145 12.6995 17.2176L20.7202 9.00001C20.8964 8.82384 21 8.59585 21 8.33679C21 7.79793 20.5958 7.38342 20.057 7.38342C19.7979 7.38342 19.5596 7.48705 19.3834 7.65285L11.4456 15.7668H12.5544L4.61657 7.65285C4.45077 7.48705 4.21243 7.38342 3.94301 7.38342C3.40414 7.38342 3 7.79793 3 8.33679C3 8.59585 3.10363 8.82384 3.27979 9.01037L11.3005 17.2176C11.4974 17.4145 11.7357 17.5182 12.0052 17.5182Z" fill="#ADADAD"/>
</g>
<defs>
<clipPath id="clip0_51_1269">
<rect width="18" height="11.0363" fill="white" transform="translate(3 6.48181)"/>
</clipPath>
</defs>
</svg>
