<svg width="24" height="24" viewBox="0 0 24 24" fill="none" xmlns="http://www.w3.org/2000/svg">
<rect width="24" height="24" rx="12" fill="#BEBEBE"/>
<path d="M6.23338 17.7671C6.54003 18.0822 7.07216 18.0732 7.37881 17.7671L11.9966 13.1481L16.6234 17.7671C16.9301 18.0732 17.4532 18.0822 17.7598 17.7671C18.0845 17.4519 18.0755 16.9297 17.7598 16.6236L13.142 12.0046L17.7598 7.39455C18.0755 7.08842 18.0845 6.55719 17.7598 6.25105C17.4532 5.93592 16.9301 5.94492 16.6234 6.25105L11.9966 10.8701L7.37881 6.25105C7.07216 5.94492 6.54003 5.93592 6.23338 6.25105C5.91771 6.55719 5.92673 7.08842 6.23338 7.39455L10.8602 12.0046L6.23338 16.6236C5.92673 16.9297 5.91771 17.4519 6.23338 17.7671Z" fill="white"/>
</svg>
