<svg width="24" height="24" viewBox="0 0 24 24" fill="none" xmlns="http://www.w3.org/2000/svg">
<path d="M2 10.8491C2 11.691 2.4953 12.2195 3.30658 12.2195H20.6849C21.4962 12.2195 22 11.691 22 10.8491V9.55048C22 8.7086 21.4962 8.17123 20.6849 8.17123H3.30658C2.4953 8.17123 2 8.7086 2 9.55048V10.8491ZM3.63963 9.59527H20.3518C20.5397 9.59527 20.6508 9.71167 20.6508 9.9087V10.4819C20.6508 10.679 20.5397 10.8043 20.3518 10.8043H3.63963C3.45175 10.8043 3.34927 10.679 3.34927 10.4819V9.9087C3.34927 9.71167 3.45175 9.59527 3.63963 9.59527ZM7.43125 21.1936H16.5688C18.5414 21.1936 19.1477 19.9845 19.4039 18.6858L20.7618 11.8612L19.421 11.6194L18.1486 18.1395C17.9181 19.2859 17.5764 19.7606 16.3297 19.7606H7.67037C6.42357 19.7606 6.08198 19.2859 5.85141 18.1395L4.57899 11.6194L3.23826 11.8612L4.59607 18.6858C4.85226 19.9845 5.45858 21.1936 7.43125 21.1936ZM8.36209 18.7844C8.67805 18.7306 8.84885 18.4888 8.80615 18.2022L8.09736 13.5181C8.04612 13.2226 7.80701 13.0613 7.49958 13.1061C7.18361 13.1688 7.00427 13.4017 7.05551 13.6883L7.76431 18.3724C7.81555 18.668 8.04612 18.8381 8.36209 18.7844ZM10.813 18.7306C11.1204 18.7127 11.3254 18.4978 11.3083 18.2022L11.035 13.5629C11.0094 13.2584 10.7959 13.0524 10.4799 13.0793C10.1725 13.1061 9.96756 13.3211 9.98461 13.6256L10.2579 18.2559C10.275 18.5605 10.5056 18.7575 10.813 18.7306ZM13.1956 18.7306C13.503 18.7575 13.7336 18.5605 13.7506 18.2559L14.0239 13.6256C14.041 13.3211 13.8361 13.1061 13.5286 13.0793C13.2126 13.0524 12.9992 13.2584 12.9735 13.5629L12.7003 18.2022C12.6832 18.4978 12.8881 18.7127 13.1956 18.7306ZM15.6379 18.7844C15.9453 18.8381 16.1844 18.668 16.2357 18.3724L16.953 13.6883C16.9957 13.4017 16.8164 13.1688 16.5004 13.1061C16.193 13.0613 15.9539 13.2226 15.9026 13.5181L15.1939 18.2022C15.1512 18.4888 15.3219 18.7306 15.6379 18.7844ZM4.75833 8.53843H6.47481L9.46372 3.08408C9.69429 2.65418 9.50642 2.27802 9.19044 2.09889C8.88301 1.92872 8.4731 1.95559 8.24253 2.35862L4.75833 8.53843ZM17.5252 8.53843H19.2417L15.7575 2.35862C15.5354 1.96455 15.1255 1.93768 14.8096 2.09889C14.5021 2.27802 14.3057 2.65418 14.5363 3.08408L17.5252 8.53843Z" fill="#8F8F8F"/>
</svg>
