<svg width="24" height="24" viewBox="0 0 24 24" fill="none" xmlns="http://www.w3.org/2000/svg">
<path d="M3.27979 15.0311C3.10363 15.1969 3 15.4352 3 15.7046C3 16.2435 3.40414 16.6476 3.94301 16.6476C4.21243 16.6476 4.46113 16.5544 4.61657 16.3782L12.5544 8.2746H11.4456L19.3834 16.3782C19.5492 16.5544 19.7979 16.6476 20.057 16.6476C20.5958 16.6476 21 16.2435 21 15.7046C21 15.4352 20.8964 15.1969 20.7202 15.0311L12.6995 6.82382C12.5233 6.62693 12.2643 6.51294 12.0052 6.51294C11.7357 6.51294 11.487 6.62693 11.3005 6.82382L3.27979 15.0311Z" fill="#ADADAD"/>
</svg>
