<svg width="24" height="24" viewBox="0 0 24 24" fill="none" xmlns="http://www.w3.org/2000/svg">
<path d="M4.36865 9.58672C4.36865 12.8035 7.07317 15.9826 11.2769 18.6947C11.5104 18.8454 11.7967 18.996 11.9925 18.996C12.1884 18.996 12.4747 18.8454 12.7082 18.6947C16.9194 15.9826 19.6164 12.8035 19.6164 9.58672C19.6164 6.80687 17.6954 4.8783 15.2319 4.8783C13.793 4.8783 12.6705 5.53371 11.9925 6.52813C11.3296 5.54124 10.1996 4.8783 8.76067 4.8783C6.28969 4.8783 4.36865 6.80687 4.36865 9.58672ZM5.92055 9.57919C5.92055 7.68075 7.17111 6.39253 8.85107 6.39253C10.2071 6.39253 10.968 7.21368 11.4426 7.92936C11.6535 8.23823 11.7967 8.33616 11.9925 8.33616C12.1959 8.33616 12.324 8.2307 12.5425 7.92936C13.0548 7.22874 13.7855 6.39253 15.134 6.39253C16.8215 6.39253 18.0721 7.68075 18.0721 9.57919C18.0721 12.231 15.3148 15.169 12.1357 17.2784C12.0679 17.3236 12.0227 17.3537 11.9925 17.3537C11.9624 17.3537 11.9172 17.3236 11.8569 17.2784C8.6778 15.169 5.92055 12.231 5.92055 9.57919Z" fill="#BEBEBE"/>
</svg>
