<svg width="24" height="24" viewBox="0 0 24 24" fill="none" xmlns="http://www.w3.org/2000/svg">
<path d="M4.36865 9.58684C4.36865 12.8036 7.07317 15.9828 11.2769 18.6948C11.5104 18.8455 11.7967 18.9962 11.9925 18.9962C12.1884 18.9962 12.4747 18.8455 12.7082 18.6948C16.9194 15.9828 19.6164 12.8036 19.6164 9.58684C19.6164 6.80699 17.6954 4.87842 15.2319 4.87842C13.793 4.87842 12.6705 5.53383 11.9925 6.52825C11.3296 5.54136 10.1996 4.87842 8.76067 4.87842C6.28969 4.87842 4.36865 6.80699 4.36865 9.58684ZM5.92055 9.57931C5.92055 7.68087 7.17111 6.39265 8.85107 6.39265C10.2071 6.39265 10.968 7.2138 11.4426 7.92948C11.6535 8.23835 11.7967 8.33629 11.9925 8.33629C12.1959 8.33629 12.324 8.23082 12.5425 7.92948C13.0548 7.22886 13.7855 6.39265 15.134 6.39265C16.8215 6.39265 18.0721 7.68087 18.0721 9.57931C18.0721 12.2311 15.3148 15.1692 12.1357 17.2785C12.0679 17.3237 12.0227 17.3539 11.9925 17.3539C11.9624 17.3539 11.9172 17.3237 11.8569 17.2785C8.6778 15.1692 5.92055 12.2311 5.92055 9.57931Z" fill="#4A4A4A"/>
</svg>
