<svg width="24" height="24" viewBox="0 0 24 24" fill="none" xmlns="http://www.w3.org/2000/svg">
<rect width="24" height="24" rx="12" fill="#ADADAD"/>
<path d="M10.2977 19.1706C10.6471 19.1706 10.9234 19.0161 11.1184 18.7155L18.7968 6.62498C18.9431 6.38935 19 6.2106 19 6.02371C19 5.57681 18.7075 5.2843 18.2606 5.2843C17.9355 5.2843 17.7568 5.38993 17.5618 5.6987L10.2652 17.3261L6.47881 12.3696C6.27568 12.0852 6.07255 11.9715 5.78004 11.9715C5.31689 11.9715 5 12.2884 5 12.7352C5 12.9222 5.08125 13.1334 5.23564 13.3284L9.4527 18.6993C9.69646 19.0161 9.94835 19.1706 10.2977 19.1706Z" fill="white" fill-opacity="0.85"/>
</svg>
